<svg xmlns="http://www.w3.org/2000/svg" viewBox="0 0 1200 630" width="1200" height="630">
  <defs>
    <linearGradient id="g" x1="0" y1="0" x2="1" y2="1">
      <stop offset="0" stop-color="#0f0c29"/>
      <stop offset="0.5" stop-color="#302b63"/>
      <stop offset="1" stop-color="#24243e"/>
    </linearGradient>
  </defs>
  <rect width="1200" height="630" fill="url(#g)"/>
  <g><line x1="0" y1="0" x2="0" y2="630" stroke="#ffffff" stroke-opacity="0.04" stroke-width="1"/><line x1="80" y1="0" x2="80" y2="630" stroke="#ffffff" stroke-opacity="0.04" stroke-width="1"/><line x1="160" y1="0" x2="160" y2="630" stroke="#ffffff" stroke-opacity="0.04" stroke-width="1"/><line x1="240" y1="0" x2="240" y2="630" stroke="#ffffff" stroke-opacity="0.04" stroke-width="1"/><line x1="320" y1="0" x2="320" y2="630" stroke="#ffffff" stroke-opacity="0.04" stroke-width="1"/><line x1="400" y1="0" x2="400" y2="630" stroke="#ffffff" stroke-opacity="0.04" stroke-width="1"/><line x1="480" y1="0" x2="480" y2="630" stroke="#ffffff" stroke-opacity="0.04" stroke-width="1"/><line x1="560" y1="0" x2="560" y2="630" stroke="#ffffff" stroke-opacity="0.04" stroke-width="1"/><line x1="640" y1="0" x2="640" y2="630" stroke="#ffffff" stroke-opacity="0.04" stroke-width="1"/><line x1="720" y1="0" x2="720" y2="630" stroke="#ffffff" stroke-opacity="0.04" stroke-width="1"/><line x1="800" y1="0" x2="800" y2="630" stroke="#ffffff" stroke-opacity="0.04" stroke-width="1"/><line x1="880" y1="0" x2="880" y2="630" stroke="#ffffff" stroke-opacity="0.04" stroke-width="1"/><line x1="960" y1="0" x2="960" y2="630" stroke="#ffffff" stroke-opacity="0.04" stroke-width="1"/><line x1="1040" y1="0" x2="1040" y2="630" stroke="#ffffff" stroke-opacity="0.04" stroke-width="1"/><line x1="1120" y1="0" x2="1120" y2="630" stroke="#ffffff" stroke-opacity="0.04" stroke-width="1"/><line x1="1200" y1="0" x2="1200" y2="630" stroke="#ffffff" stroke-opacity="0.04" stroke-width="1"/><line x1="0" y1="0" x2="1200" y2="0" stroke="#ffffff" stroke-opacity="0.04" stroke-width="1"/><line x1="0" y1="80" x2="1200" y2="80" stroke="#ffffff" stroke-opacity="0.04" stroke-width="1"/><line x1="0" y1="160" x2="1200" y2="160" stroke="#ffffff" stroke-opacity="0.04" stroke-width="1"/><line x1="0" y1="240" x2="1200" y2="240" stroke="#ffffff" stroke-opacity="0.04" stroke-width="1"/><line x1="0" y1="320" x2="1200" y2="320" stroke="#ffffff" stroke-opacity="0.04" stroke-width="1"/><line x1="0" y1="400" x2="1200" y2="400" stroke="#ffffff" stroke-opacity="0.04" stroke-width="1"/><line x1="0" y1="480" x2="1200" y2="480" stroke="#ffffff" stroke-opacity="0.04" stroke-width="1"/><line x1="0" y1="560" x2="1200" y2="560" stroke="#ffffff" stroke-opacity="0.04" stroke-width="1"/></g>
  <g><circle cx="388.6" cy="95.0" r="1.97" fill="#ffffff" opacity="0.25"/><circle cx="643.1" cy="230.4" r="0.90" fill="#ffffff" opacity="0.56"/><circle cx="45.0" cy="273.2" r="0.93" fill="#ffffff" opacity="0.26"/><circle cx="509.4" cy="520.9" r="1.02" fill="#ffffff" opacity="0.36"/><circle cx="752.9" cy="597.1" r="1.84" fill="#ffffff" opacity="0.48"/><circle cx="1171.5" cy="29.3" r="2.35" fill="#ffffff" opacity="0.40"/><circle cx="173.1" cy="74.2" r="1.36" fill="#ffffff" opacity="0.77"/><circle cx="216.9" cy="366.4" r="1.95" fill="#ffffff" opacity="0.46"/><circle cx="657.3" cy="39.6" r="0.91" fill="#ffffff" opacity="0.34"/><circle cx="816.5" cy="269.4" r="1.37" fill="#ffffff" opacity="0.61"/><circle cx="543.8" cy="188.9" r="2.23" fill="#ffffff" opacity="0.69"/><circle cx="292.9" cy="361.9" r="1.75" fill="#ffffff" opacity="0.81"/><circle cx="875.3" cy="181.4" r="2.56" fill="#ffffff" opacity="0.28"/><circle cx="501.7" cy="477.0" r="1.07" fill="#ffffff" opacity="0.54"/><circle cx="47.0" cy="421.0" r="2.18" fill="#ffffff" opacity="0.60"/><circle cx="1050.6" cy="197.7" r="2.05" fill="#ffffff" opacity="0.62"/><circle cx="695.9" cy="287.4" r="2.31" fill="#ffffff" opacity="0.86"/><circle cx="568.9" cy="418.4" r="0.91" fill="#ffffff" opacity="0.69"/><circle cx="776.6" cy="625.7" r="2.28" fill="#ffffff" opacity="0.40"/><circle cx="462.9" cy="421.3" r="0.84" fill="#ffffff" opacity="0.52"/><circle cx="201.7" cy="73.8" r="0.91" fill="#ffffff" opacity="0.74"/><circle cx="155.2" cy="156.0" r="1.50" fill="#ffffff" opacity="0.81"/><circle cx="96.7" cy="283.0" r="1.79" fill="#ffffff" opacity="0.82"/><circle cx="983.1" cy="544.3" r="1.30" fill="#ffffff" opacity="0.49"/><circle cx="430.5" cy="557.0" r="2.52" fill="#ffffff" opacity="0.31"/><circle cx="211.5" cy="146.1" r="1.22" fill="#ffffff" opacity="0.54"/><circle cx="706.9" cy="165.5" r="0.81" fill="#ffffff" opacity="0.49"/><circle cx="443.1" cy="356.8" r="2.52" fill="#ffffff" opacity="0.68"/><circle cx="618.6" cy="389.1" r="2.02" fill="#ffffff" opacity="0.24"/><circle cx="1079.4" cy="491.4" r="2.37" fill="#ffffff" opacity="0.76"/><circle cx="470.9" cy="251.4" r="0.99" fill="#ffffff" opacity="0.64"/><circle cx="74.7" cy="42.4" r="1.18" fill="#ffffff" opacity="0.31"/><circle cx="408.1" cy="33.1" r="0.80" fill="#ffffff" opacity="0.31"/><circle cx="121.8" cy="229.1" r="0.85" fill="#ffffff" opacity="0.81"/><circle cx="736.9" cy="93.6" r="1.25" fill="#ffffff" opacity="0.44"/><circle cx="437.0" cy="77.4" r="2.33" fill="#ffffff" opacity="0.90"/><circle cx="559.2" cy="304.8" r="0.95" fill="#ffffff" opacity="0.27"/><circle cx="411.2" cy="166.8" r="2.29" fill="#ffffff" opacity="0.31"/><circle cx="27.7" cy="599.1" r="1.75" fill="#ffffff" opacity="0.30"/><circle cx="651.8" cy="17.0" r="1.75" fill="#ffffff" opacity="0.88"/><circle cx="1036.0" cy="438.6" r="1.27" fill="#ffffff" opacity="0.46"/><circle cx="200.5" cy="486.3" r="1.76" fill="#ffffff" opacity="0.75"/><circle cx="395.6" cy="140.5" r="2.26" fill="#ffffff" opacity="0.89"/><circle cx="1023.2" cy="507.8" r="2.27" fill="#ffffff" opacity="0.72"/><circle cx="272.1" cy="326.1" r="1.44" fill="#ffffff" opacity="0.22"/><circle cx="33.5" cy="176.0" r="1.27" fill="#ffffff" opacity="0.68"/><circle cx="1147.8" cy="281.8" r="2.49" fill="#ffffff" opacity="0.89"/><circle cx="1146.0" cy="229.7" r="1.20" fill="#ffffff" opacity="0.36"/><circle cx="236.0" cy="128.8" r="1.92" fill="#ffffff" opacity="0.83"/><circle cx="1008.5" cy="302.1" r="1.98" fill="#ffffff" opacity="0.76"/><circle cx="101.7" cy="416.2" r="2.44" fill="#ffffff" opacity="0.75"/><circle cx="900.2" cy="301.2" r="1.12" fill="#ffffff" opacity="0.75"/><circle cx="399.0" cy="504.5" r="2.55" fill="#ffffff" opacity="0.48"/><circle cx="481.7" cy="596.5" r="2.10" fill="#ffffff" opacity="0.32"/><circle cx="152.4" cy="95.2" r="2.43" fill="#ffffff" opacity="0.76"/><circle cx="175.4" cy="520.7" r="2.56" fill="#ffffff" opacity="0.66"/><circle cx="420.5" cy="345.7" r="1.04" fill="#ffffff" opacity="0.21"/><circle cx="1165.1" cy="409.3" r="1.75" fill="#ffffff" opacity="0.85"/><circle cx="520.6" cy="549.2" r="2.29" fill="#ffffff" opacity="0.35"/><circle cx="302.2" cy="184.6" r="1.23" fill="#ffffff" opacity="0.61"/><circle cx="311.2" cy="264.0" r="1.04" fill="#ffffff" opacity="0.84"/><circle cx="424.5" cy="288.6" r="1.85" fill="#ffffff" opacity="0.83"/><circle cx="504.8" cy="578.2" r="1.70" fill="#ffffff" opacity="0.57"/><circle cx="628.2" cy="11.8" r="1.59" fill="#ffffff" opacity="0.33"/><circle cx="4.7" cy="503.5" r="1.11" fill="#ffffff" opacity="0.53"/><circle cx="870.2" cy="350.6" r="1.39" fill="#ffffff" opacity="0.56"/><circle cx="666.5" cy="494.1" r="0.99" fill="#ffffff" opacity="0.59"/><circle cx="298.2" cy="174.5" r="2.19" fill="#ffffff" opacity="0.56"/><circle cx="674.1" cy="478.8" r="2.44" fill="#ffffff" opacity="0.51"/><circle cx="735.0" cy="318.5" r="1.72" fill="#ffffff" opacity="0.68"/><circle cx="542.8" cy="336.0" r="1.66" fill="#ffffff" opacity="0.86"/><circle cx="839.1" cy="552.2" r="2.50" fill="#ffffff" opacity="0.38"/><circle cx="671.4" cy="594.3" r="2.31" fill="#ffffff" opacity="0.30"/><circle cx="145.9" cy="278.5" r="0.93" fill="#ffffff" opacity="0.37"/><circle cx="87.7" cy="421.8" r="2.21" fill="#ffffff" opacity="0.83"/><circle cx="185.3" cy="451.2" r="1.99" fill="#ffffff" opacity="0.30"/><circle cx="1059.4" cy="609.6" r="1.20" fill="#ffffff" opacity="0.87"/><circle cx="477.9" cy="307.0" r="2.58" fill="#ffffff" opacity="0.78"/><circle cx="193.8" cy="271.9" r="1.73" fill="#ffffff" opacity="0.44"/><circle cx="234.9" cy="200.7" r="2.10" fill="#ffffff" opacity="0.21"/><circle cx="664.9" cy="277.5" r="0.83" fill="#ffffff" opacity="0.43"/><circle cx="748.7" cy="322.7" r="0.92" fill="#ffffff" opacity="0.89"/><circle cx="946.0" cy="612.2" r="0.99" fill="#ffffff" opacity="0.39"/><circle cx="47.5" cy="490.8" r="1.29" fill="#ffffff" opacity="0.29"/><circle cx="506.7" cy="574.2" r="2.27" fill="#ffffff" opacity="0.38"/><circle cx="179.2" cy="579.1" r="1.83" fill="#ffffff" opacity="0.69"/><circle cx="107.4" cy="36.2" r="2.04" fill="#ffffff" opacity="0.50"/><circle cx="86.9" cy="591.2" r="1.94" fill="#ffffff" opacity="0.76"/><circle cx="100.5" cy="539.4" r="0.92" fill="#ffffff" opacity="0.80"/><circle cx="544.5" cy="213.7" r="1.80" fill="#ffffff" opacity="0.85"/><circle cx="321.4" cy="81.4" r="1.75" fill="#ffffff" opacity="0.37"/><circle cx="131.3" cy="101.7" r="0.89" fill="#ffffff" opacity="0.34"/><circle cx="374.4" cy="192.2" r="2.17" fill="#ffffff" opacity="0.40"/><circle cx="600.1" cy="112.1" r="1.42" fill="#ffffff" opacity="0.21"/><circle cx="300.5" cy="9.7" r="2.12" fill="#ffffff" opacity="0.59"/><circle cx="227.3" cy="299.1" r="2.48" fill="#ffffff" opacity="0.27"/><circle cx="982.7" cy="272.3" r="1.69" fill="#ffffff" opacity="0.78"/><circle cx="471.7" cy="319.2" r="2.04" fill="#ffffff" opacity="0.89"/><circle cx="411.2" cy="524.3" r="2.07" fill="#ffffff" opacity="0.65"/><circle cx="485.6" cy="219.0" r="0.90" fill="#ffffff" opacity="0.29"/><circle cx="84.9" cy="466.8" r="1.26" fill="#ffffff" opacity="0.31"/><circle cx="101.4" cy="530.0" r="2.37" fill="#ffffff" opacity="0.67"/><circle cx="338.3" cy="152.6" r="1.33" fill="#ffffff" opacity="0.52"/><circle cx="189.0" cy="280.9" r="1.27" fill="#ffffff" opacity="0.87"/><circle cx="1167.1" cy="344.7" r="1.24" fill="#ffffff" opacity="0.88"/><circle cx="371.5" cy="224.6" r="0.80" fill="#ffffff" opacity="0.47"/><circle cx="569.6" cy="316.7" r="1.16" fill="#ffffff" opacity="0.55"/><circle cx="5.9" cy="166.4" r="0.96" fill="#ffffff" opacity="0.48"/><circle cx="50.0" cy="14.2" r="1.35" fill="#ffffff" opacity="0.36"/><circle cx="702.7" cy="333.4" r="2.15" fill="#ffffff" opacity="0.66"/></g>
  <circle cx="1080" cy="120" r="160" fill="none" stroke="#ffffff" stroke-opacity="0.08" stroke-width="1.5"/>
  <circle cx="1080" cy="120" r="210" fill="none" stroke="#ffffff" stroke-opacity="0.05" stroke-width="1"/>
  <line x1="60" y1="560" x2="560" y2="560" stroke="#ffffff" stroke-opacity="0.12" stroke-width="1.5"/>
  <line x1="60" y1="578" x2="360" y2="578" stroke="#ffffff" stroke-opacity="0.08" stroke-width="1.5"/>
</svg>